# xmcd
#
# Track frame offsets: 
#        150
#        16547
#        28942
#        54967
#        80260
#        101375
#        117572
#        136410
#        149527
#        182402
#        192542
#        210767
#
# Disc length: 3016 seconds
#
# Revision: 0
# Processed by: cddbd v1.5.1PL0 Copyright (c) Steve Scherf et al.
# Submitted via: ExactAudioCopy v0.95a4
#
DISCID=990bc60c
DTITLE=The State Street Rhythm and Blues Band - Stae Street...The First 
DTITLE=Time Around
DYEAR=1992
DGENRE=Blues
TTITLE0=Son of Pass the Peas
TTITLE1=Willie and the Hand Jive
TTITLE2=When a Man Loves a Woman
TTITLE3=Mustang Sally
TTITLE4=You Don't Miss Your Water
TTITLE5=Strike While the Iron is Hot
TTITLE6=Lucille
TTITLE7=Unchain My Heart
TTITLE8=Stormy Monday
TTITLE9=Barefootin'
TTITLE10=Try a Little Tenderness
TTITLE11=Mr. Pitiful
EXTD=
EXTT0=
EXTT1=
EXTT2=
EXTT3=
EXTT4=
EXTT5=
EXTT6=
EXTT7=
EXTT8=
EXTT9=
EXTT10=
EXTT11=
PLAYORDER=
